<svg width="60" height="60" viewBox="0 0 60 60" fill="none" xmlns="http://www.w3.org/2000/svg">
  <!-- Fountain Pen Nib -->
  <!-- Main nib body (light blue) -->
  <path d="M12 5 L10 10 L10 22 L12 28 L12 50 L16 50 L16 28 L18 22 L18 10 L16 5 Z" fill="#6A94EE"/>
  <!-- Darker blue base -->
  <path d="M10 22 L10 30 L12 35 L12 50 L16 50 L16 35 L18 30 L18 22 L16 5 L10 10 Z" fill="#3351FD"/>
  <!-- Black line down center -->
  <line x1="14" y1="5" x2="14" y2="50" stroke="black" stroke-width="2" stroke-linecap="round"/>
  <!-- Black dot at tip -->
  <circle cx="14" cy="7" r="2" fill="black"/>
  
  <!-- Wave/Swish element from base -->
  <!-- Light blue upper wave -->
  <path d="M18 25 Q24 22 30 24 Q36 26 42 25 L42 30 Q38 33 32 32 Q26 31 22 31 Q20 30 18 28 Z" fill="#6A94EE"/>
  <!-- Darker blue lower wave -->
  <path d="M18 30 Q24 27 30 29 Q36 31 42 30 L42 35 Q38 38 32 37 Q26 36 22 36 Q20 35 18 33 Z" fill="#3351FD"/>
  
  <!-- Three sparkles -->
  <!-- Sparkle 1 (leftmost, slightly lower) -->
  <path d="M36 10 L37 14 L41 14 L38 16 L39 20 L36 18 L33 20 L34 16 L31 14 L35 14 Z" fill="#6A94EE"/>
  <!-- Sparkle 2 (middle) -->
  <path d="M42 8 L43 12 L47 12 L44 14 L45 18 L42 16 L39 18 L40 14 L37 12 L41 12 Z" fill="#6A94EE"/>
  <!-- Sparkle 3 (rightmost) -->
  <path d="M46 11 L47 15 L51 15 L48 17 L49 21 L46 19 L43 21 L44 17 L41 15 L45 15 Z" fill="#6A94EE"/>
</svg>

